<svg width="60" height="60" viewBox="0 0 60 60" fill="none" xmlns="http://www.w3.org/2000/svg">
<path d="M24.375 21.8984C23.8971 21.8984 23.3906 21.8984 22.8842 21.9545H22.7999C13.5751 22.8264 6 31.5829 6 41.342C6 52.6766 16.5282 53.9983 24.375 53.9983C32.1658 53.9983 41.25 52.8173 42.5156 43.5078C43.8373 32.5951 35.1749 21.8984 24.375 21.8984Z" fill="#DCDCDC"/>
<path d="M42.5156 43.5078C41.25 52.8173 32.1658 53.9983 24.375 53.9983V21.8984C35.1749 21.8984 43.8373 32.5951 42.5156 43.5078Z" fill="#C4C4C4"/>
<path d="M34.1337 10.6688L31.3212 19.2001H17.4279L14.6154 10.6688C14.4462 10.2469 14.5308 9.76868 14.7839 9.4032C15.0651 9.03772 15.487 8.8125 15.9371 8.8125H20.4089C20.9714 7.18103 22.5464 6 24.3746 6C26.2027 6 27.7496 7.18103 28.3402 8.8125H32.812C33.2621 8.8125 33.684 9.03772 33.9652 9.4032C34.2183 9.76868 34.3029 10.2469 34.1337 10.6688Z" fill="#DCDCDC"/>
<path d="M34.1341 10.6688L31.3216 19.2001H24.375V6C26.2031 6 27.75 7.18103 28.3407 8.8125H32.8125C33.2626 8.8125 33.6844 9.03772 33.9657 9.4032C34.2187 9.76868 34.3033 10.2469 34.1341 10.6688Z" fill="#C4C4C4"/>
<path d="M28.5664 41.7656C28.5664 43.5938 27.4136 45.1124 25.7821 45.7031V46.9688C25.7821 47.7565 25.1636 48.375 24.3759 48.375C23.5881 48.375 22.9696 47.7565 22.9696 46.9688V45.7313C21.3381 45.1406 20.1289 43.5938 20.1289 41.7656C20.1289 40.9783 20.7756 40.3594 21.5352 40.3594C22.3229 40.3594 22.9414 40.9783 22.9414 41.7656C22.9414 42.5251 23.5881 43.1719 24.3477 43.1719H24.3759C25.1636 43.1437 25.7539 42.5251 25.7539 41.7656C25.7539 40.9783 25.1636 40.3876 24.3759 40.3594H24.3477C22.0416 40.3594 20.1289 38.4467 20.1289 36.1406C20.1289 34.2843 21.3385 32.7374 22.9696 32.1749V30.0938C22.9696 29.306 23.5881 28.6875 24.3759 28.6875C25.1636 28.6875 25.7821 29.306 25.7821 30.0938V32.1749C27.4136 32.7656 28.5664 34.3125 28.5664 36.1406C28.5664 36.9001 27.9479 37.5469 27.1602 37.5469C26.4006 37.5469 25.7539 36.9001 25.7539 36.1406C25.7539 35.3533 25.1636 34.7626 24.3759 34.7344H24.3477C23.5881 34.7344 22.9414 35.3533 22.9414 36.1406C22.9414 36.9001 23.5881 37.5469 24.3477 37.5469H24.3759C26.7104 37.5751 28.5664 39.4314 28.5664 41.7656Z" fill="#EE0033"/>
<path d="M54 34.3125C54 35.8594 52.7344 37.125 51.1875 37.125L44.0625 39.9375L37.0312 37.125C35.4844 37.125 34.2188 35.8594 34.2188 34.3125C34.2188 32.7656 35.4844 31.5 37.0312 31.5H51.1875C52.7344 31.5 54 32.7656 54 34.3125Z" fill="#EE0033"/>
<path d="M54 34.3125C54 35.8594 52.7344 37.125 51.1875 37.125L44.0625 39.9375V31.5H51.1875C52.7344 31.5 54 32.7656 54 34.3125Z" fill="#EE0033"/>
<path d="M54 39.9375C54 41.4844 52.7344 42.75 51.1875 42.75L44.0625 45.5625L37.0312 42.75C35.4844 42.75 34.2188 41.4844 34.2188 39.9375C34.2188 38.3906 35.4844 37.125 37.0312 37.125H51.1875C52.7344 37.125 54 38.3906 54 39.9375Z" fill="#92001F"/>
<path d="M54 39.9375C54 41.4844 52.7344 42.75 51.1875 42.75L44.0625 45.5625V37.125H51.1875C52.7344 37.125 54 38.3906 54 39.9375Z" fill="#92001F"/>
<path d="M54 45.5625C54 47.1094 52.7344 48.375 51.1875 48.375L44.0625 51.1875L37.0312 48.375C35.4844 48.375 34.2188 47.1094 34.2188 45.5625C34.2188 44.0156 35.4844 42.75 37.0312 42.75H51.1875C52.7344 42.75 54 44.0156 54 45.5625Z" fill="#EE0033"/>
<path d="M54 45.5625C54 47.1094 52.7344 48.375 51.1875 48.375L44.0625 51.1875V42.75H51.1875C52.7344 42.75 54 44.0156 54 45.5625Z" fill="#EE0033"/>
<path d="M54 51.1875C54 52.7344 52.7344 54 51.1875 54H37.0312C35.4844 54 34.2188 52.7344 34.2188 51.1875C34.2188 49.6406 35.4844 48.375 37.0312 48.375H51.1875C52.7344 48.375 54 49.6406 54 51.1875Z" fill="#92001F"/>
<path d="M54 51.1875C54 52.7344 52.7344 54 51.1875 54H44.0625V48.375H51.1875C52.7344 48.375 54 49.6406 54 51.1875Z" fill="#92001F"/>
<path d="M34.2188 20.1562C34.2188 21.7031 32.9531 22.9688 31.4062 22.9688H17.3438C15.7969 22.9688 14.5312 21.7031 14.5312 20.1562C14.5312 18.6094 15.7969 17.3438 17.3438 17.3438H31.4062C32.9531 17.3438 34.2188 18.6094 34.2188 20.1562Z" fill="#EE0033"/>
<path d="M28.5656 41.7656C28.5656 43.5938 27.4127 45.1124 25.7812 45.7031V46.9688C25.7812 47.7565 25.1627 48.375 24.375 48.375V43.1719C25.1627 43.1437 25.7531 42.5251 25.7531 41.7656C25.7531 40.9783 25.1627 40.3876 24.375 40.3594V37.5469C26.7096 37.5751 28.5656 39.4314 28.5656 41.7656Z" fill="#92001F"/>
<path d="M28.5656 36.1406C28.5656 36.9001 27.947 37.5469 27.1593 37.5469C26.3998 37.5469 25.7531 36.9001 25.7531 36.1406C25.7531 35.3533 25.1627 34.7626 24.375 34.7344V28.6875C25.1627 28.6875 25.7812 29.306 25.7812 30.0938V32.1749C27.4127 32.7656 28.5656 34.3125 28.5656 36.1406Z" fill="#92001F"/>
<path d="M34.2188 20.1562C34.2188 21.7031 32.9531 22.9688 31.4062 22.9688H24.375V17.3438H31.4062C32.9531 17.3438 34.2188 18.6094 34.2188 20.1562Z" fill="#92001F"/>
</svg>
