<svg width="60" height="60" viewBox="0 0 60 60" fill="none" xmlns="http://www.w3.org/2000/svg">
<path d="M50.9993 41.5118H34.4544L30 34.1484H47.9994L51.7265 40.3301C51.9993 40.7846 51.6356 41.5118 50.9993 41.5118Z" fill="#92001F"/>
<path d="M30.0033 34.1484H12.0039V52.1478H30.0033V34.1484Z" fill="#828282"/>
<path d="M47.9994 34.1484H30V52.1478H47.9994V34.1484Z" fill="#EE0033"/>
<path d="M9.00245 41.5108H25.1837C25.4564 41.5108 25.7292 41.3289 25.8201 41.1471L30.0017 34.2383H12.0024L8.27521 40.329C8.00249 40.7835 8.36611 41.5108 9.00245 41.5108Z" fill="#DCDCDC"/>
<path d="M36.6386 14.5112C34.6386 12.6931 31.5478 13.0567 29.7297 14.8748L29.2752 15.3293L28.8207 14.8748C26.9116 12.9658 23.8208 12.6931 21.9118 14.5112C19.821 16.4202 19.7301 19.6019 21.73 21.6018L28.5479 28.4198C28.7298 28.6016 29.0025 28.6925 29.2752 28.6925C29.5479 28.6925 29.8206 28.6016 30.0024 28.4198L36.8204 21.6018C38.8203 19.6928 38.7294 16.4202 36.6386 14.5112Z" fill="#92001F"/>
</svg>
