<svg width="60" height="60" fill="none" xmlns="http://www.w3.org/2000/svg"><path d="M54.26 39.127a.967.967 0 0 1-.979 1h-11.05c-.553 0-.996-.448-1.049-.998-.529-5.478-5.36-9.811-11.182-9.811s-10.653 4.333-11.182 9.81c-.053.55-.496 1-1.048 1H6.719a.967.967 0 0 1-.978-1C6.29 26.731 16.994 16.754 30 16.754c13.006 0 23.709 9.977 24.258 22.372Z" fill="#C4C4C4"/><path d="M41.182 39.129c.053.55.496.999 1.048.999h11.051a.967.967 0 0 0 .978-1C53.71 26.731 43.007 16.754 30 16.754v12.563c5.822 0 10.653 4.333 11.182 9.81Z" fill="#E03"/><path d="M32.63 41.394h-4.046v-3.896l5.97-4.187c1.618-1.071 3.54.779 2.427 2.337l-4.35 5.746ZM30 16.755v12.563c2.327 0 4.452.682 6.273 1.85l9.307-8.96A24.906 24.906 0 0 0 30 16.756Z" fill="#92001F"/><path d="M30 16.755a24.555 24.555 0 0 0-14.468 4.675l9.41 9.057c1.517-.78 3.237-1.169 5.058-1.169 1.821 0 3.54.39 5.059 1.169l9.409-9.057A24.555 24.555 0 0 0 30 16.755Z" fill="#828282"/><path d="M33.238 40.128c0 1.753-1.417 3.116-3.238 3.116-1.82 0-3.237-1.363-3.237-3.116 0-1.753 1.416-3.117 3.237-3.117 1.821-.097 3.238 1.364 3.238 3.117Z" fill="#E03"/></svg>
